<svg xmlns="http://www.w3.org/2000/svg" xmlns:xlink="http://www.w3.org/1999/xlink" fill="none" version="1.1" width="15" height="15" viewBox="0 0 15 15"><defs><clipPath id="master_svg0_0_990"><rect x="0" y="0" width="15" height="15" rx="0"/></clipPath></defs><g clip-path="url(#master_svg0_0_990)"><g><path d="M14.81736875,13.93308046875C14.81736875,13.93308046875,11.08676875,10.20248046875,11.08676875,10.20248046875C12.10336875,8.95911046875,12.60316875,7.37254046875,12.48286875,5.77096046875C12.36256875,4.16938046875,11.63126875,2.67532046875,10.44016875,1.59781046875C9.24919875,0.52030446875,7.68959875,-0.05820653125,6.08399875,-0.01806166125C4.47840875,0.022083268750000003,2.94965875,0.67781246875,1.81397875,1.81349046875C0.67830075,2.94917046875,0.022571550000000003,4.47792046875,-0.01757338,6.08351046875C-0.05771825,7.68911046875,0.52079275,9.24871046875,1.59829875,10.43968046875C2.67580875,11.63078046875,4.16986875,12.36208046875,5.77144875,12.48238046875C7.37302875,12.60268046875,8.95959875,12.10288046875,10.20296875,11.08628046875C10.20296875,11.08628046875,13.93356875,14.81688046875,13.93356875,14.81688046875C14.05146875,14.93068046875,14.20936875,14.99368046875,14.37326875,14.99228046875C14.53706875,14.99088046875,14.69386875,14.92508046875,14.80976875,14.80928046875C14.92556875,14.69338046875,14.99136875,14.53658046875,14.99276875,14.37278046875C14.99416875,14.20888046875,14.93116875,14.05098046875,14.81736875,13.93308046875ZM6.25047875,11.24998046875C5.26156875,11.24998046875,4.29486875,10.95678046875,3.47261875,10.40738046875C2.65037875,9.85793046875,2.00951875,9.07703046875,1.63107875,8.16340046875C1.25263875,7.24977046875,1.15361875,6.24444046875,1.34654875,5.27453046875C1.53946875,4.30463046875,2.01567875,3.41371046875,2.71493875,2.71445046875C3.41419875,2.01519046875,4.30511875,1.53898046875,5.27501875,1.34606046875C6.24492875,1.15313046875,7.25025875,1.25215046875,8.16388875,1.63059046875C9.07751875,2.00903046875,9.85841875,2.64989046875,10.40786875,3.47213046875C10.95726875,4.29438046875,11.25046875,5.26108046875,11.25046875,6.24999046875C11.24896875,7.57561046875,10.72176875,8.84652046875,9.78435875,9.78387046875C8.84700875,10.72128046875,7.57609875,11.24848046875,6.25047875,11.24998046875Z" fill="#000000" fill-opacity="1"/></g></g></svg>